<svg xmlns="http://www.w3.org/2000/svg" xmlns:xlink="http://www.w3.org/1999/xlink" width="375" viewBox="0 0 375 375" height="375" version="1.0"><defs><clipPath id="a"><path d="M 60.941406 85.859375 L 158.742188 85.859375 L 158.742188 195.707031 L 60.941406 195.707031 Z M 60.941406 85.859375"/></clipPath><clipPath id="b"><path d="M 65.296875 106.484375 L 122.652344 106.484375 C 123.492188 106.484375 124.253906 106.960938 124.617188 107.71875 C 124.980469 108.476562 124.875 109.371094 124.347656 110.023438 L 69.542969 178.113281 C 67.589844 180.539062 67.195312 183.917969 68.542969 186.726562 C 69.886719 189.535156 72.761719 191.351562 75.875 191.351562 L 154.386719 191.351562 L 154.386719 175.082031 L 97.40625 175.082031 C 96.570312 175.082031 95.804688 174.601562 95.445312 173.84375 C 95.082031 173.089844 95.1875 172.195312 95.710938 171.539062 L 150.515625 103.449219 C 152.464844 101.023438 152.859375 97.644531 151.515625 94.832031 C 150.175781 92.027344 147.296875 90.214844 144.1875 90.214844 L 65.296875 90.214844 Z M 156.5625 195.707031 L 75.875 195.707031 C 71.097656 195.707031 66.679688 192.917969 64.617188 188.605469 C 62.550781 184.296875 63.15625 179.105469 66.15625 175.378906 L 118.105469 110.839844 L 63.121094 110.839844 C 61.917969 110.839844 60.941406 109.863281 60.941406 108.660156 L 60.941406 88.039062 C 60.941406 86.835938 61.917969 85.859375 63.121094 85.859375 L 144.1875 85.859375 C 148.960938 85.859375 153.378906 88.640625 155.441406 92.953125 C 157.503906 97.269531 156.902344 102.460938 153.90625 106.179688 L 101.953125 170.726562 L 156.5625 170.726562 C 157.765625 170.726562 158.742188 171.703125 158.742188 172.90625 L 158.742188 193.527344 C 158.742188 194.730469 157.765625 195.707031 156.5625 195.707031 Z M 156.5625 195.707031"/></clipPath><clipPath id="c"><path d="M 65.296875 106.484375 L 122.652344 106.484375 C 123.492188 106.484375 124.253906 106.960938 124.617188 107.71875 C 124.980469 108.476562 124.875 109.371094 124.347656 110.023438 L 69.542969 178.113281 C 67.589844 180.539062 67.195312 183.917969 68.542969 186.726562 C 69.886719 189.535156 72.761719 191.351562 75.875 191.351562 L 154.386719 191.351562 L 154.386719 175.082031 L 97.40625 175.082031 C 96.570312 175.082031 95.804688 174.601562 95.445312 173.84375 C 95.082031 173.089844 95.1875 172.195312 95.710938 171.539062 L 150.515625 103.449219 C 152.464844 101.023438 152.859375 97.644531 151.515625 94.832031 C 150.175781 92.027344 147.296875 90.214844 144.1875 90.214844 L 65.296875 90.214844 Z M 156.5625 195.707031 L 75.875 195.707031 C 71.097656 195.707031 66.679688 192.917969 64.617188 188.605469 C 62.550781 184.296875 63.15625 179.105469 66.15625 175.378906 L 118.105469 110.839844 L 63.121094 110.839844 C 61.917969 110.839844 60.941406 109.863281 60.941406 108.660156 L 60.941406 88.039062 C 60.941406 86.835938 61.917969 85.859375 63.121094 85.859375 L 144.1875 85.859375 C 148.960938 85.859375 153.378906 88.640625 155.441406 92.953125 C 157.503906 97.269531 156.902344 102.460938 153.90625 106.179688 L 101.953125 170.726562 L 156.5625 170.726562 C 157.765625 170.726562 158.742188 171.703125 158.742188 172.90625 L 158.742188 193.527344 C 158.742188 194.730469 157.765625 195.707031 156.5625 195.707031"/></clipPath><clipPath id="e"><path d="M 165.023438 157.058594 L 246.835938 157.058594 L 246.835938 248.855469 L 165.023438 248.855469 Z M 165.023438 157.058594"/></clipPath><clipPath id="f"><path d="M 169.375 174.152344 L 216.546875 174.152344 C 217.386719 174.152344 218.148438 174.632812 218.511719 175.390625 C 218.875 176.144531 218.769531 177.042969 218.242188 177.695312 L 172.8125 234.136719 C 171.285156 236.035156 170.976562 238.679688 172.03125 240.882812 C 173.085938 243.082031 175.335938 244.503906 177.773438 244.503906 L 242.480469 244.503906 L 242.480469 231.761719 L 195.621094 231.761719 C 194.78125 231.761719 194.019531 231.28125 193.65625 230.527344 C 193.296875 229.769531 193.398438 228.871094 193.925781 228.21875 L 239.355469 171.777344 C 240.882812 169.875 241.191406 167.230469 240.140625 165.035156 C 239.085938 162.832031 236.832031 161.414062 234.398438 161.414062 L 169.375 161.414062 Z M 244.660156 248.855469 L 177.773438 248.855469 C 173.671875 248.855469 169.875 246.46875 168.105469 242.765625 C 166.332031 239.058594 166.851562 234.601562 169.425781 231.40625 L 212.003906 178.507812 L 167.199219 178.507812 C 165.996094 178.507812 165.023438 177.53125 165.023438 176.332031 L 165.023438 159.234375 C 165.023438 158.03125 165.996094 157.058594 167.199219 157.058594 L 234.398438 157.058594 C 238.5 157.058594 242.292969 159.449219 244.0625 163.152344 C 245.835938 166.851562 245.320312 171.3125 242.746094 174.507812 L 200.167969 227.40625 L 244.660156 227.40625 C 245.859375 227.40625 246.835938 228.382812 246.835938 229.585938 L 246.835938 246.679688 C 246.835938 247.882812 245.859375 248.855469 244.660156 248.855469 Z M 244.660156 248.855469"/></clipPath><clipPath id="g"><path d="M 169.375 174.152344 L 216.546875 174.152344 C 217.386719 174.152344 218.148438 174.632812 218.511719 175.390625 C 218.875 176.144531 218.769531 177.042969 218.242188 177.695312 L 172.8125 234.136719 C 171.285156 236.035156 170.976562 238.679688 172.03125 240.882812 C 173.085938 243.082031 175.335938 244.503906 177.773438 244.503906 L 242.480469 244.503906 L 242.480469 231.761719 L 195.621094 231.761719 C 194.78125 231.761719 194.019531 231.28125 193.65625 230.527344 C 193.296875 229.769531 193.398438 228.871094 193.925781 228.21875 L 239.355469 171.777344 C 240.882812 169.875 241.191406 167.230469 240.140625 165.035156 C 239.085938 162.832031 236.832031 161.414062 234.398438 161.414062 L 169.375 161.414062 Z M 244.660156 248.855469 L 177.773438 248.855469 C 173.671875 248.855469 169.875 246.46875 168.105469 242.765625 C 166.332031 239.058594 166.851562 234.601562 169.425781 231.40625 L 212.003906 178.507812 L 167.199219 178.507812 C 165.996094 178.507812 165.023438 177.53125 165.023438 176.332031 L 165.023438 159.234375 C 165.023438 158.03125 165.996094 157.058594 167.199219 157.058594 L 234.398438 157.058594 C 238.5 157.058594 242.292969 159.449219 244.0625 163.152344 C 245.835938 166.851562 245.320312 171.3125 242.746094 174.507812 L 200.167969 227.40625 L 244.660156 227.40625 C 245.859375 227.40625 246.835938 228.382812 246.835938 229.585938 L 246.835938 246.679688 C 246.835938 247.882812 245.859375 248.855469 244.660156 248.855469"/></clipPath><clipPath id="i"><path d="M 252.613281 220.542969 L 313.816406 220.542969 L 313.816406 289.082031 L 252.613281 289.082031 Z M 252.613281 220.542969"/></clipPath><clipPath id="j"><path d="M 256.964844 233.09375 L 291.007812 233.09375 C 291.847656 233.09375 292.609375 233.574219 292.972656 234.328125 C 293.332031 235.085938 293.230469 235.984375 292.703125 236.636719 L 259.363281 278.058594 C 258.382812 279.277344 258.183594 280.984375 258.859375 282.402344 C 259.53125 283.8125 260.984375 284.726562 262.550781 284.726562 L 309.460938 284.726562 L 309.460938 276.535156 L 275.648438 276.535156 C 274.8125 276.535156 274.046875 276.054688 273.683594 275.296875 C 273.324219 274.539062 273.429688 273.644531 273.953125 272.992188 L 307.296875 231.566406 C 308.28125 230.34375 308.476562 228.644531 307.800781 227.226562 C 307.121094 225.816406 305.675781 224.898438 304.109375 224.898438 L 256.964844 224.898438 Z M 311.640625 289.082031 L 262.550781 289.082031 C 259.316406 289.082031 256.328125 287.195312 254.933594 284.277344 C 253.539062 281.355469 253.949219 277.84375 255.972656 275.328125 L 286.460938 237.445312 L 254.789062 237.445312 C 253.585938 237.445312 252.613281 236.472656 252.613281 235.269531 L 252.613281 222.722656 C 252.613281 221.519531 253.585938 220.542969 254.789062 220.542969 L 304.109375 220.542969 C 307.335938 220.542969 310.328125 222.429688 311.726562 225.34375 C 313.125 228.265625 312.714844 231.777344 310.6875 234.300781 L 280.195312 272.179688 L 311.640625 272.179688 C 312.839844 272.179688 313.816406 273.15625 313.816406 274.355469 L 313.816406 286.90625 C 313.816406 288.105469 312.839844 289.082031 311.640625 289.082031 Z M 311.640625 289.082031"/></clipPath><clipPath id="k"><path d="M 256.964844 233.09375 L 291.007812 233.09375 C 291.847656 233.09375 292.609375 233.574219 292.972656 234.328125 C 293.332031 235.085938 293.230469 235.984375 292.703125 236.636719 L 259.363281 278.058594 C 258.382812 279.277344 258.183594 280.984375 258.859375 282.402344 C 259.53125 283.8125 260.984375 284.726562 262.550781 284.726562 L 309.460938 284.726562 L 309.460938 276.535156 L 275.648438 276.535156 C 274.8125 276.535156 274.046875 276.054688 273.683594 275.296875 C 273.324219 274.539062 273.429688 273.644531 273.953125 272.992188 L 307.296875 231.566406 C 308.28125 230.34375 308.476562 228.644531 307.800781 227.226562 C 307.121094 225.816406 305.675781 224.898438 304.109375 224.898438 L 256.964844 224.898438 Z M 311.640625 289.082031 L 262.550781 289.082031 C 259.316406 289.082031 256.328125 287.195312 254.933594 284.277344 C 253.539062 281.355469 253.949219 277.84375 255.972656 275.328125 L 286.460938 237.445312 L 254.789062 237.445312 C 253.585938 237.445312 252.613281 236.472656 252.613281 235.269531 L 252.613281 222.722656 C 252.613281 221.519531 253.585938 220.542969 254.789062 220.542969 L 304.109375 220.542969 C 307.335938 220.542969 310.328125 222.429688 311.726562 225.34375 C 313.125 228.265625 312.714844 231.777344 310.6875 234.300781 L 280.195312 272.179688 L 311.640625 272.179688 C 312.839844 272.179688 313.816406 273.15625 313.816406 274.355469 L 313.816406 286.90625 C 313.816406 288.105469 312.839844 289.082031 311.640625 289.082031"/></clipPath><linearGradient x1="-.132" gradientTransform="matrix(0 159.4511 -159.34971 0 109.841 106.973)" xmlns:xlink="http://www.w3.org/1999/xlink" y1="0" x2=".556" gradientUnits="userSpaceOnUse" y2="0" xlink:type="simple" xlink:actuate="onLoad" id="d" xlink:show="other"><stop stop-color="#00ADEF" offset="0"/><stop stop-color="#00ADEF" offset=".125"/><stop stop-color="#00ADEF" offset=".188"/><stop stop-color="#00ADEF" offset=".195"/><stop stop-color="#01ADEE" offset=".199"/><stop stop-color="#02ADEE" offset=".203"/><stop stop-color="#03ADEE" offset=".207"/><stop stop-color="#04ACEE" offset=".211"/><stop stop-color="#05ACEE" offset=".215"/><stop stop-color="#05ACEE" offset=".219"/><stop stop-color="#06ACED" offset=".223"/><stop stop-color="#07ACED" offset=".227"/><stop stop-color="#08ACED" offset=".23"/><stop stop-color="#09ACED" offset=".234"/><stop stop-color="#09ACEC" offset=".238"/><stop stop-color="#0AABEC" offset=".242"/><stop stop-color="#0BABEC" offset=".246"/><stop stop-color="#0CABEC" offset=".25"/><stop stop-color="#0CABEC" offset=".254"/><stop stop-color="#0DABEC" offset=".258"/><stop stop-color="#0EABEB" offset=".262"/><stop stop-color="#0FABEB" offset=".266"/><stop stop-color="#0FABEB" offset=".27"/><stop stop-color="#10AAEB" offset=".273"/><stop stop-color="#11AAEB" offset=".277"/><stop stop-color="#12AAEA" offset=".281"/><stop stop-color="#13AAEA" offset=".285"/><stop stop-color="#14AAEA" offset=".289"/><stop stop-color="#14AAEA" offset=".293"/><stop stop-color="#15A9E9" offset=".297"/><stop stop-color="#16A9E9" offset=".301"/><stop stop-color="#17A9E9" offset=".305"/><stop stop-color="#17A9E9" offset=".313"/><stop stop-color="#19A9E9" offset=".316"/><stop stop-color="#1AA8E8" offset=".32"/><stop stop-color="#1BA8E8" offset=".328"/><stop stop-color="#1CA8E8" offset=".332"/><stop stop-color="#1DA8E7" offset=".336"/><stop stop-color="#1EA8E7" offset=".34"/><stop stop-color="#1EA7E7" offset=".344"/><stop stop-color="#1FA7E7" offset=".348"/><stop stop-color="#20A7E6" offset=".352"/><stop stop-color="#20A7E6" offset=".355"/><stop stop-color="#21A7E6" offset=".359"/><stop stop-color="#22A6E6" offset=".363"/><stop stop-color="#23A6E6" offset=".367"/><stop stop-color="#23A6E5" offset=".371"/><stop stop-color="#24A6E5" offset=".375"/><stop stop-color="#25A6E5" offset=".379"/><stop stop-color="#26A5E5" offset=".383"/><stop stop-color="#26A5E4" offset=".387"/><stop stop-color="#27A5E4" offset=".391"/><stop stop-color="#28A5E4" offset=".395"/><stop stop-color="#29A5E4" offset=".398"/><stop stop-color="#2AA4E3" offset=".402"/><stop stop-color="#2AA4E3" offset=".406"/><stop stop-color="#2BA4E3" offset=".41"/><stop stop-color="#2CA4E3" offset=".414"/><stop stop-color="#2CA3E2" offset=".418"/><stop stop-color="#2DA3E2" offset=".422"/><stop stop-color="#2EA3E2" offset=".426"/><stop stop-color="#2FA3E2" offset=".43"/><stop stop-color="#30A2E1" offset=".434"/><stop stop-color="#31A2E1" offset=".438"/><stop stop-color="#32A2E1" offset=".441"/><stop stop-color="#33A2E1" offset=".445"/><stop stop-color="#34A1E0" offset=".449"/><stop stop-color="#35A1E0" offset=".453"/><stop stop-color="#36A1E0" offset=".457"/><stop stop-color="#36A1E0" offset=".461"/><stop stop-color="#37A0E0" offset=".465"/><stop stop-color="#37A0DF" offset=".469"/><stop stop-color="#38A0DF" offset=".473"/><stop stop-color="#39A0DF" offset=".477"/><stop stop-color="#3A9FDF" offset=".48"/><stop stop-color="#3A9FDE" offset=".484"/><stop stop-color="#3B9FDE" offset=".488"/><stop stop-color="#3C9FDE" offset=".492"/><stop stop-color="#3C9FDE" offset=".5"/><stop stop-color="#3E9EDE" offset=".504"/><stop stop-color="#3F9EDD" offset=".508"/><stop stop-color="#3F9EDD" offset=".512"/><stop stop-color="#409DDD" offset=".516"/><stop stop-color="#419DDD" offset=".52"/><stop stop-color="#429CDC" offset=".523"/><stop stop-color="#439CDC" offset=".527"/><stop stop-color="#439CDC" offset=".531"/><stop stop-color="#449CDC" offset=".535"/><stop stop-color="#459BDB" offset=".539"/><stop stop-color="#469BDB" offset=".543"/><stop stop-color="#469BDB" offset=".547"/><stop stop-color="#479BDB" offset=".555"/><stop stop-color="#489ADA" offset=".559"/><stop stop-color="#499ADA" offset=".563"/><stop stop-color="#499ADA" offset=".566"/><stop stop-color="#4A99D9" offset=".57"/><stop stop-color="#4B98D9" offset=".574"/><stop stop-color="#4C98D9" offset=".578"/><stop stop-color="#4D98D8" offset=".582"/><stop stop-color="#4D98D8" offset=".586"/><stop stop-color="#4E97D8" offset=".59"/><stop stop-color="#4E97D8" offset=".594"/><stop stop-color="#4F97D8" offset=".598"/><stop stop-color="#5097D7" offset=".602"/><stop stop-color="#5196D7" offset=".605"/><stop stop-color="#5196D7" offset=".609"/><stop stop-color="#5295D7" offset=".613"/><stop stop-color="#5395D7" offset=".617"/><stop stop-color="#5395D6" offset=".621"/><stop stop-color="#5495D6" offset=".625"/><stop stop-color="#5494D6" offset=".633"/><stop stop-color="#5693D5" offset=".637"/><stop stop-color="#5793D5" offset=".641"/><stop stop-color="#5893D5" offset=".645"/><stop stop-color="#5893D5" offset=".648"/><stop stop-color="#5992D4" offset=".652"/><stop stop-color="#5A92D4" offset=".656"/><stop stop-color="#5B92D4" offset=".66"/><stop stop-color="#5B91D4" offset=".664"/><stop stop-color="#5C91D3" offset=".672"/><stop stop-color="#5D91D3" offset=".676"/><stop stop-color="#5E90D3" offset=".68"/><stop stop-color="#5F90D2" offset=".688"/><stop stop-color="#608FD2" offset=".695"/><stop stop-color="#618ED2" offset=".699"/><stop stop-color="#628ED1" offset=".703"/><stop stop-color="#638ED1" offset=".707"/><stop stop-color="#638DD1" offset=".711"/><stop stop-color="#648DD1" offset=".715"/><stop stop-color="#658DD0" offset=".719"/><stop stop-color="#658CD0" offset=".727"/><stop stop-color="#678BD0" offset=".73"/><stop stop-color="#678BCF" offset=".734"/><stop stop-color="#688ACF" offset=".738"/><stop stop-color="#698ACF" offset=".742"/><stop stop-color="#6A8ACE" offset=".746"/><stop stop-color="#6A8ACE" offset=".75"/><stop stop-color="#6B89CE" offset=".758"/><stop stop-color="#6C88CD" offset=".762"/><stop stop-color="#6D88CD" offset=".766"/><stop stop-color="#6E87CD" offset=".77"/><stop stop-color="#6E87CD" offset=".773"/><stop stop-color="#6F87CC" offset=".781"/><stop stop-color="#7086CC" offset=".785"/><stop stop-color="#7186CC" offset=".789"/><stop stop-color="#7285CB" offset=".793"/><stop stop-color="#7285CB" offset=".797"/><stop stop-color="#7385CB" offset=".801"/><stop stop-color="#7384CB" offset=".805"/><stop stop-color="#7484CA" offset=".809"/><stop stop-color="#7483CA" offset=".813"/><stop stop-color="#7583CA" offset=".816"/><stop stop-color="#7682CA" offset=".82"/><stop stop-color="#7782C9" offset=".824"/><stop stop-color="#7782C9" offset=".828"/><stop stop-color="#7881C9" offset=".836"/><stop stop-color="#7980C8" offset=".84"/><stop stop-color="#7A80C8" offset=".844"/><stop stop-color="#7A7FC8" offset=".848"/><stop stop-color="#7B7FC8" offset=".852"/><stop stop-color="#7C7EC7" offset=".855"/><stop stop-color="#7C7EC7" offset=".859"/><stop stop-color="#7D7DC7" offset=".863"/><stop stop-color="#7E7DC7" offset=".867"/><stop stop-color="#7E7DC6" offset=".871"/><stop stop-color="#7F7DC6" offset=".875"/><stop stop-color="#807CC6" offset=".879"/><stop stop-color="#807CC6" offset=".883"/><stop stop-color="#817BC5" offset=".891"/><stop stop-color="#827AC5" offset=".895"/><stop stop-color="#837AC5" offset=".898"/><stop stop-color="#8479C4" offset=".902"/><stop stop-color="#8479C4" offset=".906"/><stop stop-color="#8578C4" offset=".91"/><stop stop-color="#8578C3" offset=".914"/><stop stop-color="#8677C3" offset=".918"/><stop stop-color="#8777C3" offset=".922"/><stop stop-color="#8876C2" offset=".926"/><stop stop-color="#8976C2" offset=".93"/><stop stop-color="#8975C2" offset=".934"/><stop stop-color="#8A75C1" offset=".938"/><stop stop-color="#8B74C1" offset=".941"/><stop stop-color="#8B74C1" offset=".945"/><stop stop-color="#8C73C1" offset=".949"/><stop stop-color="#8C73C0" offset=".953"/><stop stop-color="#8D72C0" offset=".957"/><stop stop-color="#8E72C0" offset=".961"/><stop stop-color="#8F71C0" offset=".965"/><stop stop-color="#8F71BF" offset=".969"/><stop stop-color="#9070BF" offset=".973"/><stop stop-color="#9070BF" offset=".977"/><stop stop-color="#916FBE" offset=".98"/><stop stop-color="#916FBE" offset=".984"/><stop stop-color="#926EBE" offset=".992"/><stop stop-color="#936DBD" offset=".996"/><stop stop-color="#946DBD" offset="1"/></linearGradient><linearGradient x1=".314" gradientTransform="matrix(0 159.4511 -159.34971 0 205.928 106.972)" xmlns:xlink="http://www.w3.org/1999/xlink" y1="0" x2=".89" gradientUnits="userSpaceOnUse" y2="0" xlink:type="simple" xlink:actuate="onLoad" id="h" xlink:show="other"><stop stop-color="#5893D5" offset="0"/><stop stop-color="#5992D4" offset=".008"/><stop stop-color="#5A92D4" offset=".012"/><stop stop-color="#5B92D4" offset=".016"/><stop stop-color="#5C92D3" offset=".02"/><stop stop-color="#5C91D3" offset=".023"/><stop stop-color="#5D91D3" offset=".027"/><stop stop-color="#5D91D3" offset=".031"/><stop stop-color="#5E91D3" offset=".035"/><stop stop-color="#5E90D3" offset=".039"/><stop stop-color="#5F90D2" offset=".043"/><stop stop-color="#5F8FD2" offset=".047"/><stop stop-color="#608FD2" offset=".055"/><stop stop-color="#608FD2" offset=".059"/><stop stop-color="#618ED1" offset=".063"/><stop stop-color="#618ED1" offset=".066"/><stop stop-color="#628ED1" offset=".07"/><stop stop-color="#638DD1" offset=".074"/><stop stop-color="#648DD1" offset=".078"/><stop stop-color="#648DD1" offset=".082"/><stop stop-color="#658CD0" offset=".086"/><stop stop-color="#658CD0" offset=".094"/><stop stop-color="#668CD0" offset=".102"/><stop stop-color="#688BCF" offset=".105"/><stop stop-color="#688BCF" offset=".109"/><stop stop-color="#698ACF" offset=".113"/><stop stop-color="#698ACE" offset=".117"/><stop stop-color="#6A89CE" offset=".121"/><stop stop-color="#6A89CE" offset=".125"/><stop stop-color="#6B89CE" offset=".133"/><stop stop-color="#6C88CE" offset=".137"/><stop stop-color="#6D88CD" offset=".141"/><stop stop-color="#6D87CD" offset=".145"/><stop stop-color="#6E87CD" offset=".148"/><stop stop-color="#6E87CD" offset=".152"/><stop stop-color="#6F87CC" offset=".156"/><stop stop-color="#6F86CC" offset=".16"/><stop stop-color="#7086CC" offset=".164"/><stop stop-color="#7085CC" offset=".168"/><stop stop-color="#7185CC" offset=".172"/><stop stop-color="#7185CB" offset=".176"/><stop stop-color="#7285CB" offset=".18"/><stop stop-color="#7285CB" offset=".184"/><stop stop-color="#7384CB" offset=".188"/><stop stop-color="#7484CA" offset=".191"/><stop stop-color="#7483CA" offset=".195"/><stop stop-color="#7583CA" offset=".203"/><stop stop-color="#7683C9" offset=".207"/><stop stop-color="#7682C9" offset=".211"/><stop stop-color="#7782C9" offset=".215"/><stop stop-color="#7881C9" offset=".219"/><stop stop-color="#7981C9" offset=".227"/><stop stop-color="#7981C8" offset=".23"/><stop stop-color="#7A80C8" offset=".234"/><stop stop-color="#7A7FC8" offset=".238"/><stop stop-color="#7B7FC8" offset=".242"/><stop stop-color="#7B7FC7" offset=".246"/><stop stop-color="#7C7FC7" offset=".25"/><stop stop-color="#7C7EC7" offset=".254"/><stop stop-color="#7D7EC7" offset=".258"/><stop stop-color="#7D7DC6" offset=".262"/><stop stop-color="#7E7DC6" offset=".266"/><stop stop-color="#7F7CC6" offset=".27"/><stop stop-color="#7F7CC6" offset=".273"/><stop stop-color="#807CC6" offset=".281"/><stop stop-color="#817BC5" offset=".289"/><stop stop-color="#827AC5" offset=".297"/><stop stop-color="#837AC5" offset=".301"/><stop stop-color="#8379C4" offset=".305"/><stop stop-color="#8479C4" offset=".309"/><stop stop-color="#8579C4" offset=".313"/><stop stop-color="#8579C4" offset=".316"/><stop stop-color="#8678C3" offset=".32"/><stop stop-color="#8678C3" offset=".324"/><stop stop-color="#8777C3" offset=".328"/><stop stop-color="#8777C3" offset=".336"/><stop stop-color="#8976C2" offset=".34"/><stop stop-color="#8A75C2" offset=".344"/><stop stop-color="#8A75C2" offset=".348"/><stop stop-color="#8B74C1" offset=".352"/><stop stop-color="#8B74C1" offset=".355"/><stop stop-color="#8C73C1" offset=".359"/><stop stop-color="#8D72C1" offset=".363"/><stop stop-color="#8D72C0" offset=".367"/><stop stop-color="#8E72C0" offset=".371"/><stop stop-color="#8E72C0" offset=".375"/><stop stop-color="#8F71C0" offset=".379"/><stop stop-color="#8F71BF" offset=".383"/><stop stop-color="#8F70BF" offset=".387"/><stop stop-color="#9070BF" offset=".391"/><stop stop-color="#916FBF" offset=".395"/><stop stop-color="#916FBF" offset=".398"/><stop stop-color="#926EBE" offset=".402"/><stop stop-color="#926EBE" offset=".406"/><stop stop-color="#926EBE" offset=".414"/><stop stop-color="#936DBD" offset=".418"/><stop stop-color="#946DBD" offset=".422"/><stop stop-color="#946DBD" offset=".43"/><stop stop-color="#956CBC" offset=".434"/><stop stop-color="#966BBC" offset=".438"/><stop stop-color="#966BBC" offset=".441"/><stop stop-color="#976ABC" offset=".445"/><stop stop-color="#976ABB" offset=".449"/><stop stop-color="#9869BB" offset=".453"/><stop stop-color="#9869BB" offset=".461"/><stop stop-color="#9968BA" offset=".469"/><stop stop-color="#9A68BA" offset=".473"/><stop stop-color="#9B67BA" offset=".477"/><stop stop-color="#9B66BA" offset=".48"/><stop stop-color="#9C66BA" offset=".484"/><stop stop-color="#9D65B9" offset=".488"/><stop stop-color="#9D65B9" offset=".492"/><stop stop-color="#9E64B9" offset=".496"/><stop stop-color="#9E64B9" offset=".5"/><stop stop-color="#9F63B8" offset=".508"/><stop stop-color="#9F63B8" offset=".516"/><stop stop-color="#A061B8" offset=".52"/><stop stop-color="#A161B7" offset=".523"/><stop stop-color="#A161B7" offset=".527"/><stop stop-color="#A261B7" offset=".531"/><stop stop-color="#A260B7" offset=".535"/><stop stop-color="#A360B6" offset=".539"/><stop stop-color="#A35FB6" offset=".547"/><stop stop-color="#A45FB6" offset=".551"/><stop stop-color="#A55EB5" offset=".555"/><stop stop-color="#A55EB5" offset=".559"/><stop stop-color="#A65DB5" offset=".563"/><stop stop-color="#A65DB5" offset=".566"/><stop stop-color="#A75CB4" offset=".57"/><stop stop-color="#A85CB4" offset=".574"/><stop stop-color="#A85BB4" offset=".578"/><stop stop-color="#A95BB4" offset=".582"/><stop stop-color="#A95AB3" offset=".586"/><stop stop-color="#AA5AB3" offset=".594"/><stop stop-color="#AA59B3" offset=".602"/><stop stop-color="#AB58B2" offset=".605"/><stop stop-color="#AB57B2" offset=".609"/><stop stop-color="#AC56B2" offset=".613"/><stop stop-color="#AC56B2" offset=".617"/><stop stop-color="#AD55B1" offset=".621"/><stop stop-color="#AD55B1" offset=".625"/><stop stop-color="#AD54B1" offset=".629"/><stop stop-color="#AE54B1" offset=".633"/><stop stop-color="#AE53B0" offset=".637"/><stop stop-color="#AF53B0" offset=".641"/><stop stop-color="#AF53B0" offset=".645"/><stop stop-color="#B052B0" offset=".648"/><stop stop-color="#B152AF" offset=".652"/><stop stop-color="#B151AF" offset=".656"/><stop stop-color="#B151AF" offset=".66"/><stop stop-color="#B250AF" offset=".664"/><stop stop-color="#B250AE" offset=".668"/><stop stop-color="#B34FAE" offset=".672"/><stop stop-color="#B34FAE" offset=".68"/><stop stop-color="#B44EAD" offset=".688"/><stop stop-color="#B54DAD" offset=".691"/><stop stop-color="#B64CAD" offset=".695"/><stop stop-color="#B74BAD" offset=".699"/><stop stop-color="#B74BAC" offset=".703"/><stop stop-color="#B84AAC" offset=".711"/><stop stop-color="#B84AAC" offset=".719"/><stop stop-color="#B949AB" offset=".727"/><stop stop-color="#B947AB" offset=".73"/><stop stop-color="#BA47AA" offset=".734"/><stop stop-color="#BA47AA" offset=".742"/><stop stop-color="#BB46AA" offset=".746"/><stop stop-color="#BC45A9" offset=".75"/><stop stop-color="#BC45A9" offset=".754"/><stop stop-color="#BD44A9" offset=".758"/><stop stop-color="#BD44A9" offset=".762"/><stop stop-color="#BE43A8" offset=".766"/><stop stop-color="#BE43A8" offset=".77"/><stop stop-color="#BF42A8" offset=".773"/><stop stop-color="#C041A8" offset=".777"/><stop stop-color="#C041A7" offset=".781"/><stop stop-color="#C141A7" offset=".785"/><stop stop-color="#C140A7" offset=".789"/><stop stop-color="#C13FA7" offset=".793"/><stop stop-color="#C23FA6" offset=".797"/><stop stop-color="#C23EA6" offset=".801"/><stop stop-color="#C23EA6" offset=".805"/><stop stop-color="#C33DA6" offset=".809"/><stop stop-color="#C33CA5" offset=".813"/><stop stop-color="#C43CA5" offset=".816"/><stop stop-color="#C43BA5" offset=".82"/><stop stop-color="#C53AA4" offset=".824"/><stop stop-color="#C53AA4" offset=".828"/><stop stop-color="#C53AA4" offset=".836"/><stop stop-color="#C639A4" offset=".844"/><stop stop-color="#C738A3" offset=".848"/><stop stop-color="#C837A3" offset=".852"/><stop stop-color="#C837A3" offset=".855"/><stop stop-color="#C936A3" offset=".859"/><stop stop-color="#C936A2" offset=".867"/><stop stop-color="#C934A2" offset=".871"/><stop stop-color="#CA33A2" offset=".875"/><stop stop-color="#CA33A1" offset=".879"/><stop stop-color="#CB32A1" offset=".883"/><stop stop-color="#CB32A0" offset=".887"/><stop stop-color="#CC31A0" offset=".891"/><stop stop-color="#CD30A0" offset=".895"/><stop stop-color="#CD30A0" offset=".898"/><stop stop-color="#CE2F9F" offset=".902"/><stop stop-color="#CE2E9F" offset=".906"/><stop stop-color="#CF2D9F" offset=".91"/><stop stop-color="#CF2D9F" offset=".914"/><stop stop-color="#D02C9F" offset=".918"/><stop stop-color="#D02C9E" offset=".922"/><stop stop-color="#D12B9E" offset=".926"/><stop stop-color="#D12A9E" offset=".93"/><stop stop-color="#D22A9E" offset=".934"/><stop stop-color="#D2299D" offset=".938"/><stop stop-color="#D2299D" offset=".941"/><stop stop-color="#D3289C" offset=".945"/><stop stop-color="#D3289C" offset=".949"/><stop stop-color="#D4279C" offset=".953"/><stop stop-color="#D4279C" offset=".957"/><stop stop-color="#D4269B" offset=".961"/><stop stop-color="#D4259B" offset=".965"/><stop stop-color="#D5249B" offset=".969"/><stop stop-color="#D5249B" offset=".973"/><stop stop-color="#D6239A" offset=".977"/><stop stop-color="#D6239A" offset=".98"/><stop stop-color="#D7229A" offset=".984"/><stop stop-color="#D7219A" offset=".992"/><stop stop-color="#D82099" offset=".996"/><stop stop-color="#D92099" offset="1"/></linearGradient><linearGradient x1=".712" gradientTransform="matrix(0 159.4511 -159.34971 0 283.215 106.973)" xmlns:xlink="http://www.w3.org/1999/xlink" y1="0" x2="1.142" gradientUnits="userSpaceOnUse" y2="0" xlink:type="simple" xlink:actuate="onLoad" id="l" xlink:show="other"><stop stop-color="#B54DAD" offset="0"/><stop stop-color="#B64CAD" offset=".016"/><stop stop-color="#B74BAC" offset=".02"/><stop stop-color="#B74BAC" offset=".023"/><stop stop-color="#B84AAC" offset=".031"/><stop stop-color="#B949AC" offset=".047"/><stop stop-color="#B948AB" offset=".055"/><stop stop-color="#BA47AB" offset=".063"/><stop stop-color="#BA46AA" offset=".066"/><stop stop-color="#BB46AA" offset=".07"/><stop stop-color="#BB46AA" offset=".078"/><stop stop-color="#BC45AA" offset=".086"/><stop stop-color="#BC45A9" offset=".094"/><stop stop-color="#BD44A9" offset=".098"/><stop stop-color="#BE43A9" offset=".102"/><stop stop-color="#BE42A9" offset=".105"/><stop stop-color="#BF42A8" offset=".109"/><stop stop-color="#BF41A8" offset=".117"/><stop stop-color="#C041A7" offset=".125"/><stop stop-color="#C140A7" offset=".133"/><stop stop-color="#C13FA7" offset=".137"/><stop stop-color="#C13FA7" offset=".141"/><stop stop-color="#C23EA6" offset=".145"/><stop stop-color="#C23EA6" offset=".148"/><stop stop-color="#C33DA6" offset=".156"/><stop stop-color="#C33DA6" offset=".164"/><stop stop-color="#C43CA5" offset=".172"/><stop stop-color="#C53BA5" offset=".18"/><stop stop-color="#C53AA4" offset=".188"/><stop stop-color="#C539A4" offset=".195"/><stop stop-color="#C639A4" offset=".203"/><stop stop-color="#C638A3" offset=".211"/><stop stop-color="#C738A3" offset=".219"/><stop stop-color="#C837A3" offset=".227"/><stop stop-color="#C835A2" offset=".23"/><stop stop-color="#C935A2" offset=".234"/><stop stop-color="#CA34A2" offset=".242"/><stop stop-color="#CA33A1" offset=".25"/><stop stop-color="#CB33A1" offset=".258"/><stop stop-color="#CC32A1" offset=".262"/><stop stop-color="#CC32A1" offset=".266"/><stop stop-color="#CD31A0" offset=".27"/><stop stop-color="#CD30A0" offset=".273"/><stop stop-color="#CE2FA0" offset=".277"/><stop stop-color="#CE2FA0" offset=".281"/><stop stop-color="#CE2E9F" offset=".285"/><stop stop-color="#CE2E9F" offset=".289"/><stop stop-color="#CF2D9F" offset=".297"/><stop stop-color="#D02C9F" offset=".313"/><stop stop-color="#D12C9E" offset=".316"/><stop stop-color="#D12B9E" offset=".32"/><stop stop-color="#D22A9E" offset=".328"/><stop stop-color="#D2299D" offset=".336"/><stop stop-color="#D3299D" offset=".344"/><stop stop-color="#D3289D" offset=".352"/><stop stop-color="#D3269C" offset=".355"/><stop stop-color="#D4269C" offset=".359"/><stop stop-color="#D4259B" offset=".367"/><stop stop-color="#D5249B" offset=".375"/><stop stop-color="#D5249B" offset=".383"/><stop stop-color="#D6239B" offset=".387"/><stop stop-color="#D7239A" offset=".391"/><stop stop-color="#D7229A" offset=".395"/><stop stop-color="#D7229A" offset=".398"/><stop stop-color="#D82199" offset=".406"/><stop stop-color="#D82099" offset=".414"/><stop stop-color="#D91F99" offset=".422"/><stop stop-color="#DA1F98" offset=".43"/><stop stop-color="#DA1E98" offset=".438"/><stop stop-color="#DB1D98" offset=".441"/><stop stop-color="#DB1C98" offset=".445"/><stop stop-color="#DB1B97" offset=".453"/><stop stop-color="#DC1A97" offset=".461"/><stop stop-color="#DD1996" offset=".469"/><stop stop-color="#DD1896" offset=".477"/><stop stop-color="#DE1896" offset=".48"/><stop stop-color="#DE1896" offset=".484"/><stop stop-color="#DE1795" offset=".492"/><stop stop-color="#DF1695" offset=".5"/><stop stop-color="#E01594" offset=".508"/><stop stop-color="#E01494" offset=".516"/><stop stop-color="#E01394" offset=".52"/><stop stop-color="#E11394" offset=".523"/><stop stop-color="#E11393" offset=".531"/><stop stop-color="#E11293" offset=".539"/><stop stop-color="#E21192" offset=".547"/><stop stop-color="#E31092" offset=".555"/><stop stop-color="#E30F92" offset=".563"/><stop stop-color="#E40D92" offset=".566"/><stop stop-color="#E40D91" offset=".57"/><stop stop-color="#E50C91" offset=".578"/><stop stop-color="#E60B91" offset=".586"/><stop stop-color="#E60A90" offset=".594"/><stop stop-color="#E70990" offset=".602"/><stop stop-color="#E70890" offset=".605"/><stop stop-color="#E7088F" offset=".609"/><stop stop-color="#E8078F" offset=".617"/><stop stop-color="#E8068F" offset=".625"/><stop stop-color="#E9068E" offset=".633"/><stop stop-color="#EA058E" offset=".641"/><stop stop-color="#EA048E" offset=".645"/><stop stop-color="#EA038D" offset=".648"/><stop stop-color="#EB028D" offset=".656"/><stop stop-color="#EB018C" offset=".664"/><stop stop-color="#EC008C" offset=".672"/><stop stop-color="#EC008C" offset=".688"/><stop stop-color="#EC008C" offset=".75"/><stop stop-color="#EC008C" offset="1"/></linearGradient></defs><path fill="#FFF" d="M 156.5625 193.527344 L 75.875 193.527344 C 71.90625 193.527344 68.289062 191.25 66.578125 187.667969 C 64.863281 184.085938 65.359375 179.839844 67.847656 176.746094 L 122.652344 108.660156 L 63.121094 108.660156 L 63.121094 88.039062 L 144.1875 88.039062 C 148.152344 88.039062 151.765625 90.3125 153.476562 93.894531 C 155.191406 97.476562 154.699219 101.726562 152.210938 104.8125 L 97.40625 172.90625 L 156.5625 172.90625 L 156.5625 193.527344"/><g clip-path="url(#a)"><g clip-path="url(#b)"><g clip-path="url(#c)"><path fill="url(#d)" d="M 158.742188 85.859375 L 60.941406 85.859375 L 60.941406 195.707031 L 158.742188 195.707031 Z M 158.742188 85.859375"/></g></g></g><path fill="#FFF" d="M 244.660156 246.679688 L 177.773438 246.679688 C 174.484375 246.679688 171.488281 244.792969 170.066406 241.824219 C 168.648438 238.855469 169.054688 235.335938 171.117188 232.769531 L 216.546875 176.332031 L 167.199219 176.332031 L 167.199219 159.234375 L 234.398438 159.234375 C 237.683594 159.234375 240.679688 161.125 242.101562 164.09375 C 243.523438 167.0625 243.113281 170.582031 241.050781 173.144531 L 195.621094 229.585938 L 244.660156 229.585938 L 244.660156 246.679688"/><g clip-path="url(#e)"><g clip-path="url(#f)"><g clip-path="url(#g)"><path fill="url(#h)" d="M 246.835938 157.058594 L 165.023438 157.058594 L 165.023438 248.855469 L 246.835938 248.855469 Z M 246.835938 157.058594"/></g></g></g><path fill="#FFF" d="M 311.640625 286.90625 L 262.550781 286.90625 C 260.140625 286.90625 257.9375 285.519531 256.894531 283.335938 C 255.859375 281.160156 256.15625 278.574219 257.667969 276.695312 L 291.007812 235.269531 L 254.789062 235.269531 L 254.789062 222.722656 L 304.109375 222.722656 C 306.523438 222.722656 308.71875 224.113281 309.761719 226.285156 C 310.804688 228.46875 310.503906 231.054688 308.988281 232.933594 L 275.648438 274.355469 L 311.640625 274.355469 L 311.640625 286.90625"/><g clip-path="url(#i)"><g clip-path="url(#j)"><g clip-path="url(#k)"><path fill="url(#l)" d="M 313.816406 220.542969 L 252.613281 220.542969 L 252.613281 289.082031 L 313.816406 289.082031 Z M 313.816406 220.542969"/></g></g></g></svg>